<?xml version="1.0" encoding="UTF-8" standalone="no"?>
<!DOCTYPE svg PUBLIC "-//W3C//DTD SVG 1.1//EN" "http://www.w3.org/Graphics/SVG/1.1/DTD/svg11.dtd">
<svg width="100%" height="100%" viewBox="0 0 256 256" version="1.1" xmlns="http://www.w3.org/2000/svg" xmlns:xlink="http://www.w3.org/1999/xlink" xml:space="preserve" xmlns:serif="http://www.serif.com/" style="fill-rule:evenodd;clip-rule:evenodd;stroke-linejoin:round;stroke-miterlimit:2;">
    <g id="VRBuilder-Logo" transform="matrix(1.08475,0,0,1.08475,0,0)">
        <rect x="0" y="0" width="236" height="236" style="fill:white;fill-opacity:0;"/>
        <g id="Ebene-1" serif:id="Ebene 1" transform="matrix(0.820875,0,0,0.820875,12.928,12.928)">
            <g transform="matrix(0,255.999,255.999,0,128.006,0.000542881)">
                <path d="M0.75,0.433L0.25,0.433L-0,-0L0.25,-0.433L0.75,-0.433L1,-0L0.75,0.433Z" style="fill:url(#_Linear1);fill-rule:nonzero;"/>
            </g>
            <g transform="matrix(1.1086,0,0,1.1086,62.5846,73.0064)">
                <path d="M0,107.478L59.004,141.556L118.029,107.475C112.934,104.388 107.835,101.291 102.744,98.194C95.387,102.462 88.046,106.714 80.705,110.965L76.544,113.375L76.544,59.38L84.493,54.781L84.511,54.82L122.591,32.819L122.582,37.632C122.566,46.151 122.548,54.602 122.546,63.065C127.773,65.919 132.998,68.783 138.215,71.656L138.231,3.508L79.2,-30.55C79.077,-24.598 78.951,-18.639 78.816,-12.69L105.059,2.409L60.231,28.293L60.231,28.276L58.718,29.151L13.01,2.764L17.17,0.364C22.483,-2.701 27.798,-5.757 33.117,-8.818L39.208,-12.321C39.07,-18.284 38.935,-24.239 38.809,-30.199L-20.205,3.869L-20.205,72.016C-16.854,70.177 -13.497,68.338 -10.141,66.499L-4.525,63.421C-4.541,54.888 -4.557,46.414 -4.557,37.94L-4.557,33.14L41.443,59.713L41.443,113.358L15.281,98.194C10.192,101.292 5.1,104.388 0,107.478M59.775,147.512L58.288,147.512L57.59,147.14L-10.893,107.587L-6.877,105.161C0.029,100.988 6.919,96.796 13.805,92.604L15.213,91.748L35.901,103.74L35.901,62.907L0.987,42.741C0.992,50.156 1.007,57.573 1.021,65.001L1.025,66.646L-0.419,67.491L-7.478,71.36C-12.205,73.949 -16.932,76.539 -21.641,79.128L-25.747,81.385L-25.747,1.157L-24.691,0.076L-24.325,-0.152L44.155,-39.685L44.252,-34.998C44.418,-26.928 44.602,-18.874 44.788,-10.804L44.826,-9.159L35.881,-4.013C31.951,-1.753 28.025,0.505 24.1,2.767L58.718,22.75L65.774,18.673L65.774,18.694L93.96,2.418L73.199,-9.529L73.237,-11.173C73.419,-19.072 73.584,-26.991 73.746,-34.891L73.852,-40.034L143.288,0.026L143.756,1.455L143.774,1.953L143.754,81.044L139.644,78.774C132.592,74.879 125.519,71.001 118.447,67.143L117.004,66.354L117.004,64.71C117.004,57.279 117.016,49.86 117.031,42.433L82.137,62.592L82.119,62.557L82.087,62.577L82.087,103.761C88.515,100.038 94.945,96.312 101.387,92.574L102.813,91.748L104.218,92.604C111.11,96.797 118.016,100.989 124.906,105.162L128.913,107.59L59.775,147.512Z" style="fill:white;fill-rule:nonzero;"/>
            </g>
            <g transform="matrix(0.554258,0.9601,0.9601,-0.554258,218.11,125.41)">
                <rect x="-41.388" y="-71.681" width="5.547" height="92.375" style="fill:white;"/>
            </g>
            <g transform="matrix(-1.1086,0,0,1.1086,258.828,99.3194)">
                <rect x="115.235" y="25.748" width="5.542" height="92.375" style="fill:white;"/>
            </g>
            <g transform="matrix(0.554258,-0.9601,-0.9601,-0.554258,40.9742,130.731)">
                <rect x="38.616" y="-66.882" width="5.538" height="92.376" style="fill:white;"/>
            </g>
            <g transform="matrix(1.1086,0,0,1.1086,131.077,98.7852)">
                <path d="M0,-87.532L0,1.57L-5.542,1.57L-5.542,-87.514L-2.79,-89.102L-2.734,-89.102L0,-87.532Z" style="fill:white;fill-rule:nonzero;"/>
            </g>
            <g transform="matrix(1.1086,0,0,1.1086,235.806,139.075)">
                <path d="M0,49.351L-77.165,4.8L-74.394,0L2.755,44.542L2.755,47.72L2.727,47.768L0,49.351Z" style="fill:white;fill-rule:nonzero;"/>
            </g>
            <g transform="matrix(1.1086,0,0,1.1086,17.1401,144.374)">
                <path d="M0,39.76L77.165,-4.791L79.936,0.009L2.787,44.551L0.035,42.961L0.007,42.913L0,39.76Z" style="fill:white;fill-rule:nonzero;"/>
            </g>
            <g transform="matrix(1.1086,0,0,1.1086,79.37,165.533)">
                <path d="M0,8.329L2.855,13.08L24.626,-0.002L23.616,-2.585L23.588,-2.632L21.769,-4.751L0,8.329Z" style="fill:white;fill-rule:nonzero;"/>
            </g>
            <g transform="matrix(1.1086,0,0,1.1086,112.271,91.2257)">
                <path d="M0,-25.909L-5.541,-25.812L-5.098,-0.417L-2.356,0L-2.301,-0.001L0.443,-0.517L0,-25.909Z" style="fill:white;fill-rule:nonzero;"/>
            </g>
            <g transform="matrix(1.1086,0,0,1.1086,192.761,127.801)">
                <path d="M0,17.161L2.687,12.314L-19.528,0L-21.26,2.166L-21.287,2.214L-22.212,4.849L0,17.161Z" style="fill:white;fill-rule:nonzero;"/>
            </g>
            <g transform="matrix(1.1086,0,0,1.1086,173.467,160.26)">
                <path d="M0,17.832L2.854,13.081L-18.917,0L-20.724,2.104L-20.752,2.151L-21.769,4.752L0,17.832Z" style="fill:white;fill-rule:nonzero;"/>
            </g>
            <g transform="matrix(1.1086,0,0,1.1086,60.4411,133.447)">
                <path d="M0,7.465L2.687,12.312L24.902,-0.001L23.983,-2.618L23.956,-2.667L22.212,-4.847L0,7.465Z" style="fill:white;fill-rule:nonzero;"/>
            </g>
            <g transform="matrix(1.1086,0,0,1.1086,149.891,90.5252)">
                <path d="M0,-25.715L-5.541,-25.812L-5.985,-0.416L-3.259,0.096L-3.204,0.097L-0.443,-0.323L0,-25.715Z" style="fill:white;fill-rule:nonzero;"/>
            </g>
        </g>
    </g>
    <defs>
        <linearGradient id="_Linear1" x1="0" y1="0" x2="1" y2="0" gradientUnits="userSpaceOnUse" gradientTransform="matrix(1,0,0,-1,0,-7.86416e-07)"><stop offset="0" style="stop-color:rgb(210,0,213);stop-opacity:1"/><stop offset="0.33" style="stop-color:rgb(185,25,227);stop-opacity:1"/><stop offset="1" style="stop-color:rgb(134,60,221);stop-opacity:1"/><stop offset="1" style="stop-color:rgb(134,60,221);stop-opacity:1"/></linearGradient>
    </defs>
</svg>
